<?xml version="1.0" encoding="UTF-8"?><svg xmlns="http://www.w3.org/2000/svg" width="465.96" height="371.61" xmlns:xlink="http://www.w3.org/1999/xlink" viewBox="0 0 465.96 371.61"><defs><style>.cls-1{fill:url(#_新規パターンスウォッチ_5);}.cls-1,.cls-2,.cls-3,.cls-4{stroke-width:0px;}.cls-5{clip-path:url(#clippath);}.cls-2{fill:none;}.cls-6{mix-blend-mode:multiply;opacity:0;}.cls-7{isolation:isolate;}.cls-4{fill:#f1f1f1;}</style><clipPath id="clippath"><rect class="cls-2" width="465.96" height="371.61" transform="translate(465.96 371.61) rotate(180)"/></clipPath><pattern id="_新規パターンスウォッチ_5" x="0" y="0" width="17.81" height="17.81" patternTransform="translate(-3941.23 -2694.63) scale(.8)" patternUnits="userSpaceOnUse" viewBox="0 0 17.81 17.81"><rect class="cls-2" width="17.81" height="17.81"/><rect class="cls-3" width="8.9" height="8.9"/><rect class="cls-3" x="8.9" y="8.9" width="8.9" height="8.9"/></pattern></defs><g class="cls-7"><g id="_レイヤー_2"><g id="_文字"><g class="cls-5"><path class="cls-4" d="M-.5,315.53c-17.5-16.81-26.24-39.7-26.24-68.67v-108.24c0-28.42,8.74-50.97,26.24-67.65,17.49-16.67,41.27-25.01,71.34-25.01s53.91,8.34,71.54,25.01c17.63,16.67,26.45,39.23,26.45,67.65v108.24c0,28.98-8.82,51.87-26.45,68.67-17.63,16.81-41.48,25.22-71.54,25.22s-53.85-8.41-71.34-25.22ZM100.15,279.86c7.24-7.51,10.87-17.56,10.87-30.13v-112.75c0-12.57-3.63-22.61-10.87-30.13-7.25-7.51-17.01-11.28-29.31-11.28s-21.67,3.76-28.91,11.28c-7.25,7.52-10.87,17.57-10.87,30.13v112.75c0,12.58,3.62,22.62,10.87,30.13,7.24,7.52,16.87,11.28,28.91,11.28s22.07-3.75,29.31-11.28Z"/><path class="cls-4" d="M273.74,49.24h49.61c1.36,0,2.52.48,3.48,1.44.96.96,1.44,2.12,1.44,3.48v277.16c0,1.37-.48,2.53-1.44,3.49s-2.12,1.43-3.48,1.43h-47.97c-1.37,0-2.53-.47-3.48-1.43-.96-.96-1.44-2.11-1.44-3.49V106.64c0-.54-.28-1.09-.82-1.64-.55-.54-1.09-.68-1.64-.41l-40.59,11.07-1.64.41c-2.46,0-3.69-1.5-3.69-4.51l-1.23-35.26c0-2.73,1.23-4.64,3.69-5.74l43.05-20.09c1.36-.82,3.41-1.23,6.15-1.23Z"/><g class="cls-6"><path class="cls-1" d="M-.51,315.53c-17.5-16.81-26.24-39.7-26.24-68.67v-108.24c0-28.42,8.75-50.97,26.24-67.65,17.49-16.67,41.27-25.01,71.34-25.01s53.92,8.34,71.54,25.01c17.63,16.67,26.45,39.23,26.45,67.65v108.24c0,28.98-8.82,51.87-26.45,68.67-17.63,16.81-41.48,25.22-71.54,25.22s-53.85-8.41-71.34-25.22ZM100.15,279.86c7.24-7.51,10.87-17.56,10.87-30.13v-112.75c0-12.57-3.63-22.61-10.87-30.13-7.25-7.51-17.02-11.28-29.32-11.28s-21.67,3.76-28.91,11.28c-7.25,7.52-10.87,17.57-10.87,30.13v112.75c0,12.58,3.62,22.62,10.87,30.13,7.24,7.52,16.88,11.28,28.91,11.28s22.07-3.75,29.32-11.28Z"/><path class="cls-1" d="M273.74,49.24h49.61c1.36,0,2.52.48,3.49,1.44.96.96,1.44,2.12,1.44,3.48v277.16c0,1.37-.48,2.53-1.44,3.49s-2.12,1.43-3.49,1.43h-47.97c-1.37,0-2.53-.47-3.48-1.43-.96-.96-1.44-2.11-1.44-3.49V106.64c0-.54-.28-1.09-.82-1.64-.55-.54-1.1-.68-1.64-.41l-40.59,11.07-1.64.41c-2.46,0-3.69-1.5-3.69-4.51l-1.23-35.26c0-2.73,1.23-4.64,3.69-5.74l43.05-20.09c1.36-.82,3.42-1.23,6.15-1.23Z"/></g></g></g></g></g></svg>