<?xml version="1.0" encoding="UTF-8"?><svg xmlns="http://www.w3.org/2000/svg" width="465.96" height="371.61" xmlns:xlink="http://www.w3.org/1999/xlink" viewBox="0 0 465.96 371.61"><defs><style>.cls-1{fill:url(#_新規パターンスウォッチ_5);}.cls-1,.cls-2,.cls-3,.cls-4{stroke-width:0px;}.cls-5{clip-path:url(#clippath);}.cls-2{fill:none;}.cls-6{mix-blend-mode:multiply;opacity:0;}.cls-7{isolation:isolate;}.cls-4{fill:#f1f1f1;}</style><clipPath id="clippath"><rect class="cls-2" width="465.96" height="371.61" transform="translate(465.96 371.61) rotate(180)"/></clipPath><pattern id="_新規パターンスウォッチ_5" x="0" y="0" width="17.81" height="17.81" patternTransform="translate(-4183.4 -3435.38) scale(.8)" patternUnits="userSpaceOnUse" viewBox="0 0 17.81 17.81"><rect class="cls-2" width="17.81" height="17.81"/><rect class="cls-3" width="8.9" height="8.9"/><rect class="cls-3" x="8.9" y="8.9" width="8.9" height="8.9"/></pattern></defs><g class="cls-7"><g id="_レイヤー_2"><g id="_文字"><g class="cls-5"><path class="cls-4" d="M-.5,315.53c-17.5-16.81-26.24-39.7-26.24-68.67v-108.24c0-28.42,8.74-50.97,26.24-67.65,17.49-16.67,41.27-25.01,71.34-25.01s53.91,8.34,71.54,25.01c17.63,16.67,26.45,39.23,26.45,67.65v108.24c0,28.98-8.82,51.87-26.45,68.67-17.63,16.81-41.48,25.22-71.54,25.22s-53.85-8.41-71.34-25.22ZM100.15,279.86c7.24-7.51,10.87-17.56,10.87-30.13v-112.75c0-12.57-3.63-22.61-10.87-30.13-7.25-7.51-17.01-11.28-29.31-11.28s-21.67,3.76-28.91,11.28c-7.25,7.52-10.87,17.57-10.87,30.13v112.75c0,12.58,3.62,22.62,10.87,30.13,7.24,7.52,16.87,11.28,28.91,11.28s22.07-3.75,29.31-11.28Z"/><path class="cls-4" d="M301.17,285.81c.27.55.82.82,1.64.82h111.11c1.37,0,2.52.48,3.49,1.44.95.96,1.43,2.12,1.43,3.49v39.77c0,1.37-.48,2.53-1.43,3.49-.96.96-2.12,1.43-3.49,1.43h-184.5c-1.37,0-2.53-.47-3.48-1.43-.96-.96-1.44-2.11-1.44-3.49v-37.72c0-2.46.82-4.51,2.46-6.15,13.39-13.12,27.06-27.4,41-42.84,13.94-15.44,22.68-25.07,26.24-28.91,7.65-9.02,15.44-17.63,23.37-25.83,24.87-27.6,37.31-48.1,37.31-61.5,0-9.56-3.42-17.42-10.25-23.57-6.84-6.15-15.72-9.23-26.65-9.23s-19.82,3.08-26.65,9.23c-6.84,6.15-10.25,14.29-10.25,24.39v10.25c0,1.37-.48,2.53-1.43,3.49-.96.96-2.12,1.43-3.49,1.43h-48.38c-1.37,0-2.53-.47-3.49-1.43-.96-.96-1.43-2.11-1.43-3.49v-19.27c.82-14.76,5.46-27.81,13.94-39.16,8.47-11.34,19.74-20.02,33.82-26.04,14.07-6.01,29.86-9.02,47.36-9.02,19.4,0,36.29,3.63,50.63,10.87,14.35,7.25,25.42,17.02,33.21,29.32s11.68,25.97,11.68,41c0,11.48-2.87,23.24-8.61,35.26-5.74,12.03-14.35,25.01-25.83,38.95-8.48,10.66-17.63,21.19-27.47,31.57-9.84,10.39-24.46,25.42-43.87,45.1l-6.15,6.15c-.55.55-.69,1.09-.41,1.64Z"/><g class="cls-6"><path class="cls-1" d="M-.51,315.53c-17.5-16.81-26.24-39.7-26.24-68.67v-108.24c0-28.42,8.75-50.97,26.24-67.65,17.49-16.67,41.27-25.01,71.34-25.01s53.92,8.34,71.54,25.01c17.63,16.67,26.45,39.23,26.45,67.65v108.24c0,28.98-8.82,51.87-26.45,68.67-17.63,16.81-41.48,25.22-71.54,25.22s-53.85-8.41-71.34-25.22ZM100.15,279.86c7.24-7.51,10.87-17.56,10.87-30.13v-112.75c0-12.57-3.63-22.61-10.87-30.13-7.25-7.51-17.02-11.28-29.32-11.28s-21.67,3.76-28.91,11.28c-7.25,7.52-10.87,17.57-10.87,30.13v112.75c0,12.58,3.62,22.62,10.87,30.13,7.24,7.52,16.88,11.28,28.91,11.28s22.07-3.75,29.32-11.28Z"/><path class="cls-1" d="M301.17,285.81c.27.55.82.82,1.64.82h111.11c1.36,0,2.52.48,3.48,1.44.96.96,1.44,2.12,1.44,3.49v39.77c0,1.37-.48,2.53-1.44,3.49s-2.12,1.43-3.48,1.43h-184.5c-1.37,0-2.53-.47-3.49-1.43-.96-.96-1.43-2.11-1.43-3.49v-37.72c0-2.46.82-4.51,2.46-6.15,13.39-13.12,27.06-27.4,41-42.84,13.94-15.44,22.68-25.07,26.24-28.91,7.65-9.02,15.44-17.63,23.37-25.83,24.87-27.6,37.31-48.1,37.31-61.5,0-9.56-3.42-17.42-10.25-23.57-6.83-6.15-15.72-9.23-26.65-9.23s-19.82,3.08-26.65,9.23c-6.84,6.15-10.25,14.29-10.25,24.39v10.25c0,1.37-.48,2.53-1.44,3.49s-2.12,1.43-3.48,1.43h-48.38c-1.37,0-2.53-.47-3.48-1.43-.96-.96-1.44-2.11-1.44-3.49v-19.27c.82-14.76,5.46-27.81,13.94-39.16,8.47-11.34,19.74-20.02,33.83-26.04,14.07-6.01,29.86-9.02,47.36-9.02,19.4,0,36.28,3.63,50.63,10.87,14.35,7.25,25.42,17.02,33.21,29.32,7.79,12.3,11.69,25.97,11.69,41,0,11.48-2.87,23.24-8.61,35.26-5.74,12.03-14.35,25.01-25.83,38.95-8.48,10.66-17.63,21.19-27.47,31.57-9.84,10.39-24.46,25.42-43.87,45.1l-6.15,6.15c-.55.55-.69,1.09-.41,1.64Z"/></g></g></g></g></g></svg>