<?xml version="1.0" encoding="UTF-8"?><svg xmlns="http://www.w3.org/2000/svg" width="465.96" height="371.61" xmlns:xlink="http://www.w3.org/1999/xlink" viewBox="0 0 465.96 371.61"><defs><style>.cls-1{fill:url(#_新規パターンスウォッチ_5);}.cls-1,.cls-2,.cls-3,.cls-4{stroke-width:0px;}.cls-5{clip-path:url(#clippath);}.cls-2{fill:none;}.cls-6{mix-blend-mode:multiply;opacity:0;}.cls-7{isolation:isolate;}.cls-4{fill:#f1f1f1;}</style><clipPath id="clippath"><rect class="cls-2" width="465.96" height="371.61" transform="translate(465.96 371.61) rotate(180)"/></clipPath><pattern id="_新規パターンスウォッチ_5" x="0" y="0" width="17.81" height="17.81" patternTransform="translate(-4183.4 -4176.13) scale(.8)" patternUnits="userSpaceOnUse" viewBox="0 0 17.81 17.81"><rect class="cls-2" width="17.81" height="17.81"/><rect class="cls-3" width="8.9" height="8.9"/><rect class="cls-3" x="8.9" y="8.9" width="8.9" height="8.9"/></pattern></defs><g class="cls-7"><g id="_レイヤー_2"><g id="_文字"><g class="cls-5"><path class="cls-4" d="M-.5,315.53c-17.5-16.81-26.24-39.7-26.24-68.67v-108.24c0-28.42,8.74-50.97,26.24-67.65,17.49-16.67,41.27-25.01,71.34-25.01s53.91,8.34,71.54,25.01c17.63,16.68,26.45,39.23,26.45,67.65v108.24c0,28.98-8.82,51.87-26.45,68.67-17.63,16.81-41.48,25.21-71.54,25.21s-53.85-8.4-71.34-25.21ZM100.15,279.86c7.24-7.51,10.87-17.56,10.87-30.13v-112.75c0-12.57-3.63-22.61-10.87-30.13-7.25-7.51-17.01-11.28-29.31-11.28s-21.67,3.76-28.91,11.28c-7.25,7.52-10.87,17.57-10.87,30.13v112.75c0,12.58,3.62,22.62,10.87,30.13,7.24,7.52,16.87,11.28,28.91,11.28s22.07-3.75,29.31-11.28Z"/><path class="cls-4" d="M411.62,242.76c0,14.76-2.46,28.43-7.38,41-6.56,17.5-17.57,31.16-33.01,41-15.45,9.84-33.69,14.76-54.73,14.76s-39.02-5.19-54.73-15.58c-15.72-10.38-27-24.46-33.83-42.23-3.83-10.66-6.01-22.14-6.56-34.44,0-3.28,1.64-4.92,4.92-4.92h48.38c3.28,0,4.92,1.64,4.92,4.92,1.09,9.02,2.6,15.72,4.51,20.09,2.46,7.11,6.49,12.65,12.1,16.61,5.6,3.96,12.23,5.94,19.88,5.94,15.3,0,25.83-6.69,31.57-20.09,3.82-8.2,5.74-17.76,5.74-28.7,0-12.84-2.05-23.37-6.15-31.57-6.29-12.84-16.81-19.27-31.57-19.27-3.01,0-6.15.89-9.43,2.67-3.28,1.78-7.25,4.3-11.89,7.58-1.09.82-2.19,1.23-3.28,1.23-1.64,0-2.87-.82-3.69-2.46l-24.19-34.03c-.55-.82-.82-1.77-.82-2.87,0-1.64.54-3,1.64-4.1l65.19-56.99c.54-.54.75-1.09.62-1.64-.14-.54-.62-.82-1.43-.82h-96.35c-1.37,0-2.53-.47-3.49-1.43-.96-.96-1.43-2.11-1.43-3.49v-39.77c0-1.36.47-2.52,1.43-3.48s2.11-1.44,3.49-1.44h170.97c1.37,0,2.52.48,3.49,1.44.95.96,1.43,2.12,1.43,3.48v45.1c0,2.19-.96,4.24-2.87,6.15l-53.71,49.2c-.55.55-.76,1.1-.62,1.64.13.55.75.82,1.85.82,23.78,4.65,40.72,18.73,50.84,42.23,5.46,12.58,8.2,27.06,8.2,43.46Z"/><g class="cls-6"><path class="cls-1" d="M-.51,315.53c-17.5-16.81-26.24-39.7-26.24-68.67v-108.24c0-28.42,8.75-50.97,26.24-67.65,17.49-16.67,41.27-25.01,71.34-25.01s53.92,8.34,71.54,25.01c17.63,16.68,26.45,39.23,26.45,67.65v108.24c0,28.97-8.82,51.87-26.45,68.67s-41.48,25.21-71.54,25.21-53.85-8.41-71.34-25.21ZM100.15,279.86c7.24-7.51,10.87-17.56,10.87-30.14v-112.75c0-12.57-3.63-22.61-10.87-30.13-7.25-7.51-17.02-11.27-29.32-11.27s-21.67,3.76-28.91,11.27c-7.25,7.52-10.87,17.57-10.87,30.13v112.75c0,12.58,3.62,22.62,10.87,30.14,7.24,7.52,16.88,11.27,28.91,11.27s22.07-3.75,29.32-11.27Z"/><path class="cls-1" d="M411.62,242.76c0,14.76-2.46,28.43-7.38,41-6.56,17.5-17.57,31.16-33.01,41-15.45,9.84-33.69,14.76-54.73,14.76s-39.02-5.19-54.74-15.58c-15.72-10.38-27-24.46-33.83-42.23-3.83-10.66-6.02-22.14-6.56-34.44,0-3.28,1.64-4.92,4.92-4.92h48.38c3.28,0,4.92,1.64,4.92,4.92,1.09,9.02,2.59,15.72,4.51,20.09,2.46,7.11,6.49,12.65,12.1,16.6,5.6,3.97,12.23,5.95,19.88,5.95,15.3,0,25.83-6.69,31.57-20.09,3.82-8.2,5.74-17.76,5.74-28.7,0-12.84-2.05-23.37-6.15-31.57-6.29-12.84-16.81-19.27-31.57-19.27-3.01,0-6.15.89-9.43,2.67-3.28,1.78-7.25,4.3-11.89,7.58-1.1.82-2.19,1.23-3.28,1.23-1.64,0-2.87-.82-3.69-2.46l-24.19-34.03c-.55-.82-.82-1.78-.82-2.87,0-1.64.54-3,1.64-4.1l65.19-56.99c.54-.54.75-1.09.62-1.64-.14-.54-.62-.82-1.43-.82h-96.35c-1.37,0-2.53-.47-3.48-1.44-.96-.96-1.44-2.11-1.44-3.49v-39.77c0-1.36.47-2.52,1.44-3.49.96-.95,2.11-1.43,3.48-1.43h170.97c1.36,0,2.52.48,3.48,1.43.96.96,1.44,2.12,1.44,3.49v45.1c0,2.19-.96,4.24-2.87,6.15l-53.71,49.2c-.55.55-.76,1.1-.62,1.64.13.55.75.82,1.85.82,23.78,4.65,40.72,18.73,50.84,42.23,5.46,12.58,8.2,27.06,8.2,43.46Z"/></g></g></g></g></g></svg>