<?xml version="1.0" encoding="UTF-8"?><svg id="_レイヤー_2" xmlns="http://www.w3.org/2000/svg" width="30.79" height="781.46" viewBox="0 0 30.79 781.46"><defs><style>.cls-1{fill:#e40112;stroke-width:0px;}</style></defs><g id="_文字"><rect class="cls-1" x="12.32" y="762.98" width="6.16" height="6.16"/><rect class="cls-1" x="6.16" y="769.14" width="6.16" height="6.16"/><rect class="cls-1" y="762.98" width="6.16" height="6.16"/><rect class="cls-1" x="24.63" y="762.98" width="6.16" height="6.16"/><rect class="cls-1" x="12.32" y="750.67" width="6.16" height="6.16"/><rect class="cls-1" x="12.32" y="738.35" width="6.16" height="6.16"/><rect class="cls-1" x="18.48" y="769.14" width="6.16" height="6.16"/><rect class="cls-1" x="12.32" y="775.3" width="6.16" height="6.16"/><rect class="cls-1" x="12.32" y="726.03" width="6.16" height="6.16"/><rect class="cls-1" x="12.32" y="713.72" width="6.16" height="6.16"/><rect class="cls-1" x="12.32" y="701.4" width="6.16" height="6.16"/><rect class="cls-1" x="12.32" y="689.08" width="6.16" height="6.16"/><rect class="cls-1" x="12.32" y="676.77" width="6.16" height="6.16"/><rect class="cls-1" x="12.32" y="664.45" width="6.16" height="6.16"/><rect class="cls-1" x="12.32" y="652.13" width="6.16" height="6.16"/><rect class="cls-1" x="12.32" y="639.82" width="6.16" height="6.16"/><rect class="cls-1" x="12.32" y="627.5" width="6.16" height="6.16"/><rect class="cls-1" x="12.32" y="615.18" width="6.16" height="6.16"/><rect class="cls-1" x="12.32" y="582.56" width="6.16" height="6.16"/><rect class="cls-1" x="6.16" y="588.72" width="6.16" height="6.16"/><rect class="cls-1" y="582.56" width="6.16" height="6.16"/><rect class="cls-1" x="24.63" y="582.56" width="6.16" height="6.16"/><rect class="cls-1" x="12.32" y="570.24" width="6.16" height="6.16"/><rect class="cls-1" x="12.32" y="557.92" width="6.16" height="6.16"/><rect class="cls-1" x="18.48" y="588.72" width="6.16" height="6.16"/><rect class="cls-1" x="12.32" y="594.87" width="6.16" height="6.16"/><rect class="cls-1" x="12.32" y="545.61" width="6.16" height="6.16"/><rect class="cls-1" x="12.32" y="533.29" width="6.16" height="6.16"/><rect class="cls-1" x="12.32" y="520.97" width="6.16" height="6.16"/><rect class="cls-1" x="12.32" y="508.66" width="6.16" height="6.16"/><rect class="cls-1" x="12.32" y="496.34" width="6.16" height="6.16"/><rect class="cls-1" x="12.32" y="484.02" width="6.16" height="6.16"/><rect class="cls-1" x="12.32" y="471.71" width="6.16" height="6.16"/><rect class="cls-1" x="12.32" y="459.39" width="6.16" height="6.16"/><rect class="cls-1" x="12.32" y="447.07" width="6.16" height="6.16"/><rect class="cls-1" x="12.32" y="434.76" width="6.16" height="6.16"/><rect class="cls-1" x="12.32" y="422.44" width="6.16" height="6.16"/><rect class="cls-1" x="12.32" y="410.12" width="6.16" height="6.16"/><rect class="cls-1" x="12.32" y="377.5" width="6.16" height="6.16"/><rect class="cls-1" x="6.16" y="383.65" width="6.16" height="6.16"/><rect class="cls-1" y="377.5" width="6.16" height="6.16"/><rect class="cls-1" x="24.63" y="377.5" width="6.16" height="6.16"/><rect class="cls-1" x="12.32" y="365.18" width="6.16" height="6.16"/><rect class="cls-1" x="12.32" y="352.86" width="6.16" height="6.16"/><rect class="cls-1" x="18.48" y="383.65" width="6.16" height="6.16"/><rect class="cls-1" x="12.32" y="389.81" width="6.16" height="6.16"/><rect class="cls-1" x="12.32" y="340.55" width="6.16" height="6.16"/><rect class="cls-1" x="12.32" y="328.23" width="6.16" height="6.16"/><rect class="cls-1" x="12.32" y="315.91" width="6.16" height="6.16"/><rect class="cls-1" x="12.32" y="303.6" width="6.16" height="6.16"/><rect class="cls-1" x="12.32" y="291.28" width="6.16" height="6.16"/><rect class="cls-1" x="12.32" y="278.96" width="6.16" height="6.16"/><rect class="cls-1" x="12.32" y="266.65" width="6.16" height="6.16"/><rect class="cls-1" x="12.32" y="254.33" width="6.16" height="6.16"/><rect class="cls-1" x="12.32" y="242.01" width="6.16" height="6.16"/><rect class="cls-1" x="12.32" y="229.69" width="6.16" height="6.16"/><rect class="cls-1" x="12.32" y="217.38" width="6.16" height="6.16"/><rect class="cls-1" x="12.32" y="205.06" width="6.16" height="6.16"/><rect class="cls-1" x="12.32" y="172.43" width="6.16" height="6.16"/><rect class="cls-1" x="6.16" y="178.59" width="6.16" height="6.16"/><rect class="cls-1" y="172.43" width="6.16" height="6.16"/><rect class="cls-1" x="24.63" y="172.43" width="6.16" height="6.16"/><rect class="cls-1" x="12.32" y="160.12" width="6.16" height="6.16"/><rect class="cls-1" x="12.32" y="147.8" width="6.16" height="6.16"/><rect class="cls-1" x="18.48" y="178.59" width="6.16" height="6.16"/><rect class="cls-1" x="12.32" y="184.75" width="6.16" height="6.16"/><rect class="cls-1" x="12.32" y="135.48" width="6.16" height="6.16"/><rect class="cls-1" x="12.32" y="123.17" width="6.16" height="6.16"/><rect class="cls-1" x="12.32" y="110.85" width="6.16" height="6.16"/><rect class="cls-1" x="12.32" y="98.53" width="6.16" height="6.16"/><rect class="cls-1" x="12.32" y="86.22" width="6.16" height="6.16"/><rect class="cls-1" x="12.32" y="73.9" width="6.16" height="6.16"/><rect class="cls-1" x="12.32" y="61.58" width="6.16" height="6.16"/><rect class="cls-1" x="12.32" y="49.27" width="6.16" height="6.16"/><rect class="cls-1" x="12.32" y="36.95" width="6.16" height="6.16"/><rect class="cls-1" x="12.32" y="24.63" width="6.16" height="6.16"/><rect class="cls-1" x="12.32" y="12.32" width="6.16" height="6.16"/><rect class="cls-1" x="12.32" width="6.16" height="6.16"/></g></svg>