<?xml version="1.0" encoding="UTF-8"?><svg id="_レイヤー_2" xmlns="http://www.w3.org/2000/svg" width="15.4" height="873.48" viewBox="0 0 15.4 873.48"><defs><style>.cls-1{fill:#e40112;stroke-width:0px;}</style></defs><g id="_文字"><rect class="cls-1" x="6.16" y="221.43" width="3.08" height="3.08"/><rect class="cls-1" x="3.08" y="224.51" width="3.08" height="3.08"/><rect class="cls-1" y="221.43" width="3.08" height="3.08"/><rect class="cls-1" x="12.32" y="221.43" width="3.08" height="3.08"/><rect class="cls-1" x="6.16" y="215.27" width="3.08" height="3.08"/><rect class="cls-1" x="6.16" y="209.12" width="3.08" height="3.08"/><rect class="cls-1" x="9.24" y="224.51" width="3.08" height="3.08"/><rect class="cls-1" x="6.16" y="227.59" width="3.08" height="3.08"/><rect class="cls-1" x="6.16" y="202.96" width="3.08" height="3.08"/><rect class="cls-1" x="6.16" y="172.3" width="3.08" height="3.08"/><rect class="cls-1" x="6.16" y="166.14" width="3.08" height="3.08"/><rect class="cls-1" x="6.16" y="159.98" width="3.08" height="3.08"/><rect class="cls-1" x="6.16" y="153.82" width="3.08" height="3.08"/><rect class="cls-1" x="6.16" y="196.88" width="3.08" height="3.08"/><rect class="cls-1" x="6.16" y="190.72" width="3.08" height="3.08"/><rect class="cls-1" x="6.16" y="184.56" width="3.08" height="3.08"/><rect class="cls-1" x="6.16" y="178.4" width="3.08" height="3.08"/><rect class="cls-1" x="6.16" y="147.66" width="3.08" height="3.08"/><rect class="cls-1" x="6.16" y="141.51" width="3.08" height="3.08"/><rect class="cls-1" x="6.16" y="135.35" width="3.08" height="3.08"/><rect class="cls-1" x="6.16" y="129.19" width="3.08" height="3.08"/><rect class="cls-1" x="6.16" y="123.03" width="3.08" height="3.08"/><rect class="cls-1" x="6.16" y="116.87" width="3.08" height="3.08"/><rect class="cls-1" x="6.16" y="110.71" width="3.08" height="3.08"/><rect class="cls-1" x="6.16" y="104.63" width="3.08" height="3.08"/><rect class="cls-1" x="6.16" y="98.48" width="3.08" height="3.08"/><rect class="cls-1" x="6.16" y="92.32" width="3.08" height="3.08"/><rect class="cls-1" x="6.16" y="86.16" width="3.08" height="3.08"/><rect class="cls-1" x="6.16" y="80" width="3.08" height="3.08"/><rect class="cls-1" x="6.16" y="73.84" width="3.08" height="3.08"/><rect class="cls-1" x="6.16" y="67.68" width="3.08" height="3.08"/><rect class="cls-1" x="6.16" y="61.53" width="3.08" height="3.08"/><rect class="cls-1" x="6.16" y="55.37" width="3.08" height="3.08"/><rect class="cls-1" x="6.16" y="49.21" width="3.08" height="3.08"/><rect class="cls-1" x="6.16" y="43.05" width="3.08" height="3.08"/><rect class="cls-1" x="6.16" y="36.89" width="3.08" height="3.08"/><rect class="cls-1" x="6.16" y="30.71" width="3.08" height="3.08"/><rect class="cls-1" x="6.16" y="24.55" width="3.08" height="3.08"/><rect class="cls-1" x="6.16" y="18.4" width="3.08" height="3.08"/><rect class="cls-1" x="6.16" y="12.24" width="3.08" height="3.08"/><rect class="cls-1" x="6.16" y="6.16" width="3.08" height="3.08"/><rect class="cls-1" x="6.16" width="3.08" height="3.08"/><rect class="cls-1" x="6.16" y="461.1" width="3.08" height="3.08"/><rect class="cls-1" x="3.08" y="464.18" width="3.08" height="3.08"/><rect class="cls-1" y="461.1" width="3.08" height="3.08"/><rect class="cls-1" x="12.32" y="461.1" width="3.08" height="3.08"/><rect class="cls-1" x="6.16" y="454.94" width="3.08" height="3.08"/><rect class="cls-1" x="6.16" y="448.79" width="3.08" height="3.08"/><rect class="cls-1" x="9.24" y="464.18" width="3.08" height="3.08"/><rect class="cls-1" x="6.16" y="467.26" width="3.08" height="3.08"/><rect class="cls-1" x="6.16" y="442.63" width="3.08" height="3.08"/><rect class="cls-1" x="6.16" y="411.97" width="3.08" height="3.08"/><rect class="cls-1" x="6.16" y="405.81" width="3.08" height="3.08"/><rect class="cls-1" x="6.16" y="399.65" width="3.08" height="3.08"/><rect class="cls-1" x="6.16" y="393.49" width="3.08" height="3.08"/><rect class="cls-1" x="6.16" y="436.55" width="3.08" height="3.08"/><rect class="cls-1" x="6.16" y="430.39" width="3.08" height="3.08"/><rect class="cls-1" x="6.16" y="424.23" width="3.08" height="3.08"/><rect class="cls-1" x="6.16" y="418.07" width="3.08" height="3.08"/><rect class="cls-1" x="6.16" y="387.33" width="3.08" height="3.08"/><rect class="cls-1" x="6.16" y="381.18" width="3.08" height="3.08"/><rect class="cls-1" x="6.16" y="375.02" width="3.08" height="3.08"/><rect class="cls-1" x="6.16" y="368.86" width="3.08" height="3.08"/><rect class="cls-1" x="6.16" y="362.7" width="3.08" height="3.08"/><rect class="cls-1" x="6.16" y="356.54" width="3.08" height="3.08"/><rect class="cls-1" x="6.16" y="350.38" width="3.08" height="3.08"/><rect class="cls-1" x="6.16" y="344.3" width="3.08" height="3.08"/><rect class="cls-1" x="6.16" y="338.15" width="3.08" height="3.08"/><rect class="cls-1" x="6.16" y="331.99" width="3.08" height="3.08"/><rect class="cls-1" x="6.16" y="325.83" width="3.08" height="3.08"/><rect class="cls-1" x="6.16" y="319.67" width="3.08" height="3.08"/><rect class="cls-1" x="6.16" y="313.51" width="3.08" height="3.08"/><rect class="cls-1" x="6.16" y="307.35" width="3.08" height="3.08"/><rect class="cls-1" x="6.16" y="301.2" width="3.08" height="3.08"/><rect class="cls-1" x="6.16" y="295.04" width="3.08" height="3.08"/><rect class="cls-1" x="6.16" y="288.88" width="3.08" height="3.08"/><rect class="cls-1" x="6.16" y="282.72" width="3.08" height="3.08"/><rect class="cls-1" x="6.16" y="276.56" width="3.08" height="3.08"/><rect class="cls-1" x="6.16" y="270.38" width="3.08" height="3.08"/><rect class="cls-1" x="6.16" y="264.22" width="3.08" height="3.08"/><rect class="cls-1" x="6.16" y="258.07" width="3.08" height="3.08"/><rect class="cls-1" x="6.16" y="251.91" width="3.08" height="3.08"/><rect class="cls-1" x="6.16" y="245.83" width="3.08" height="3.08"/><rect class="cls-1" x="6.16" y="239.67" width="3.08" height="3.08"/><rect class="cls-1" x="6.16" y="663.32" width="3.08" height="3.08"/><rect class="cls-1" x="3.08" y="666.4" width="3.08" height="3.08"/><rect class="cls-1" y="663.32" width="3.08" height="3.08"/><rect class="cls-1" x="12.32" y="663.32" width="3.08" height="3.08"/><rect class="cls-1" x="6.16" y="657.16" width="3.08" height="3.08"/><rect class="cls-1" x="6.16" y="651" width="3.08" height="3.08"/><rect class="cls-1" x="9.24" y="666.4" width="3.08" height="3.08"/><rect class="cls-1" x="6.16" y="669.48" width="3.08" height="3.08"/><rect class="cls-1" x="6.16" y="627" width="3.08" height="3.08"/><rect class="cls-1" x="6.16" y="633" width="3.08" height="3.08"/><rect class="cls-1" x="6.16" y="639" width="3.08" height="3.08"/><rect class="cls-1" x="6.16" y="645" width="3.08" height="3.08"/><rect class="cls-1" x="6.16" y="620.85" width="3.08" height="3.08"/><rect class="cls-1" x="6.16" y="614.69" width="3.08" height="3.08"/><rect class="cls-1" x="6.16" y="608.53" width="3.08" height="3.08"/><rect class="cls-1" x="6.16" y="602.37" width="3.08" height="3.08"/><rect class="cls-1" x="6.16" y="596.21" width="3.08" height="3.08"/><rect class="cls-1" x="6.16" y="590.05" width="3.08" height="3.08"/><rect class="cls-1" x="6.16" y="583.98" width="3.08" height="3.08"/><rect class="cls-1" x="6.16" y="577.82" width="3.08" height="3.08"/><rect class="cls-1" x="6.16" y="571.66" width="3.08" height="3.08"/><rect class="cls-1" x="6.16" y="565.5" width="3.08" height="3.08"/><rect class="cls-1" x="6.16" y="559.34" width="3.08" height="3.08"/><rect class="cls-1" x="6.16" y="553.18" width="3.08" height="3.08"/><rect class="cls-1" x="6.16" y="547.03" width="3.08" height="3.08"/><rect class="cls-1" x="6.16" y="540.87" width="3.08" height="3.08"/><rect class="cls-1" x="6.16" y="534.71" width="3.08" height="3.08"/><rect class="cls-1" x="6.16" y="528.55" width="3.08" height="3.08"/><rect class="cls-1" x="6.16" y="522.39" width="3.08" height="3.08"/><rect class="cls-1" x="6.16" y="516.23" width="3.08" height="3.08"/><rect class="cls-1" x="6.16" y="510.05" width="3.08" height="3.08"/><rect class="cls-1" x="6.16" y="503.89" width="3.08" height="3.08"/><rect class="cls-1" x="6.16" y="497.74" width="3.08" height="3.08"/><rect class="cls-1" x="6.16" y="491.58" width="3.08" height="3.08"/><rect class="cls-1" x="6.16" y="485.5" width="3.08" height="3.08"/><rect class="cls-1" x="6.16" y="479.34" width="3.08" height="3.08"/><rect class="cls-1" x="6.16" y="864.24" width="3.08" height="3.08"/><rect class="cls-1" x="3.08" y="867.32" width="3.08" height="3.08"/><rect class="cls-1" y="864.24" width="3.08" height="3.08"/><rect class="cls-1" x="12.32" y="864.24" width="3.08" height="3.08"/><rect class="cls-1" x="6.16" y="858.08" width="3.08" height="3.08"/><rect class="cls-1" x="6.16" y="851.93" width="3.08" height="3.08"/><rect class="cls-1" x="9.24" y="867.32" width="3.08" height="3.08"/><rect class="cls-1" x="6.16" y="870.4" width="3.08" height="3.08"/><rect class="cls-1" x="6.16" y="845.77" width="3.08" height="3.08"/><rect class="cls-1" x="6.16" y="839.61" width="3.08" height="3.08"/><rect class="cls-1" x="6.16" y="833.45" width="3.08" height="3.08"/><rect class="cls-1" x="6.16" y="827.29" width="3.08" height="3.08"/><rect class="cls-1" x="6.16" y="821.13" width="3.08" height="3.08"/><rect class="cls-1" x="6.16" y="814.98" width="3.08" height="3.08"/><rect class="cls-1" x="6.16" y="808.82" width="3.08" height="3.08"/><rect class="cls-1" x="6.16" y="802.66" width="3.08" height="3.08"/><rect class="cls-1" x="6.16" y="796.5" width="3.08" height="3.08"/><rect class="cls-1" x="6.16" y="790.34" width="3.08" height="3.08"/><rect class="cls-1" x="6.16" y="784.18" width="3.08" height="3.08"/><rect class="cls-1" x="6.16" y="778.03" width="3.08" height="3.08"/><rect class="cls-1" x="6.16" y="771.95" width="3.08" height="3.08"/><rect class="cls-1" x="6.16" y="765.79" width="3.08" height="3.08"/><rect class="cls-1" x="6.16" y="759.63" width="3.08" height="3.08"/><rect class="cls-1" x="6.16" y="753.47" width="3.08" height="3.08"/><rect class="cls-1" x="6.16" y="747.31" width="3.08" height="3.08"/><rect class="cls-1" x="6.16" y="741.16" width="3.08" height="3.08"/><rect class="cls-1" x="6.16" y="735" width="3.08" height="3.08"/><rect class="cls-1" x="6.16" y="728.84" width="3.08" height="3.08"/><rect class="cls-1" x="6.16" y="722.68" width="3.08" height="3.08"/><rect class="cls-1" x="6.16" y="716.52" width="3.08" height="3.08"/><rect class="cls-1" x="6.16" y="710.36" width="3.08" height="3.08"/><rect class="cls-1" x="6.16" y="704.21" width="3.08" height="3.08"/><rect class="cls-1" x="6.16" y="698.03" width="3.08" height="3.08"/><rect class="cls-1" x="6.16" y="691.87" width="3.08" height="3.08"/><rect class="cls-1" x="6.16" y="685.71" width="3.08" height="3.08"/><rect class="cls-1" x="6.16" y="679.66" width="3.08" height="3.08"/></g></svg>