<?xml version="1.0" encoding="UTF-8"?><svg id="_レイヤー_2" xmlns="http://www.w3.org/2000/svg" width="101.82" height="30.42" viewBox="0 0 101.82 30.42"><defs><style>.cls-1{fill:#fff;stroke-width:0px;}</style></defs><g id="_文字"><path class="cls-1" d="M11.46,24.63h-2.75c-.8,0-1.28.51-1.28.51,0,0-.35-.51-.97-.51h-2.77s-2.26,0-2.84,2.37c-.58,2.37-.85,3.41-.85,3.41h2.25l1.24-4.97h2.77l-1.24,4.97h2.25l1.24-4.97h2.75l-1.24,4.97h2.25l.85-3.41c.58-2.37-1.66-2.37-1.66-2.37Z"/><path class="cls-1" d="M3.42,25.68c.03-.15.16-.25.32-.25v-.14h-.36s-.11.19-.11.19l.15.2Z"/><path class="cls-1" d="M20.69,25.68c.03-.15.16-.25.32-.25v-.14h-.36s-.11.19-.11.19l.15.2Z"/><path class="cls-1" d="M19.78,29.36c.03.15.16.25.32.25v.14h-.36s-.11-.19-.11-.19l.15-.2Z"/><path class="cls-1" d="M6.18,25.75c.07-.2-.05-.32-.2-.32l-.1-.14h.36s.11.19.11.19l-.17.27Z"/><path class="cls-1" d="M11.18,25.75c.07-.2-.05-.32-.2-.32l-.1-.14h.36s.11.19.11.19l-.17.27Z"/><path class="cls-1" d="M51.69,25.76c.07-.2-.05-.32-.2-.32l-.1-.14h.36s.11.19.11.19l-.17.27Z"/><path class="cls-1" d="M59.47,26.79c-.07.2.05.32.2.32l.1.14h-.36s-.11-.19-.11-.19l.17-.27Z"/><path class="cls-1" d="M19.53,30.4c-.33,0-2.06-.84-1.47-3.15.67-2.62,2.9-2.63,2.9-2.63h6.94l-.81.81h-6.34l-1.02,4.17h6.23l.79.79s-6.72,0-7.22,0Z"/><path class="cls-1" d="M46.55,25.68c.03-.15.16-.25.32-.25v-.14h-.36s-.11.19-.11.19l.15.2Z"/><path class="cls-1" d="M59.73,25.72c.03-.15.16-.25.32-.25v-.14h-.36s-.11.19-.11.19l.15.2Z"/><path class="cls-1" d="M65.06,28.24c.07-.2-.05-.32-.2-.32l-.1-.14h.36s.11.19.11.19l-.17.27Z"/><path class="cls-1" d="M64.8,29.31c-.03.15-.16.25-.32.25v.14h.36s.11-.19.11-.19l-.15-.2Z"/><path class="cls-1" d="M51.77,25.43h-5.15l-1.02,4.17-.2.8s-2.14-.53-1.47-3.15c.67-2.63,2.84-2.63,2.9-2.63h5.15c.32,0,2.05.81,1.48,3.14-.57,2.33-2.34,2.64-2.9,2.64h-4l.81-.81h3.39l1.03-4.16Z"/><path class="cls-1" d="M50.81,29.34c-.03.15-.16.25-.32.25v.14h.36s.11-.19.11-.19l-.15-.2Z"/><path class="cls-1" d="M88.23,25.76c.07-.2-.05-.32-.2-.32l-.1-.14h.36s.11.19.11.19l-.17.27Z"/><path class="cls-1" d="M83.1,25.68c.03-.15.16-.25.32-.25v-.14h-.36s-.11.19-.11.19l.15.2Z"/><path class="cls-1" d="M88.31,25.43h-5.15l-1.02,4.17-.2.8s-2.14-.53-1.47-3.15,2.84-2.63,2.9-2.63h5.15c.32,0,2.05.81,1.48,3.14-.57,2.33-2.34,2.64-2.9,2.64h-4l.81-.81h3.39l1.03-4.16Z"/><path class="cls-1" d="M87.35,29.34c-.03.15-.16.25-.32.25v.14h.36s.11-.19.11-.19l-.15-.2Z"/><polygon class="cls-1" points="15.18 24.63 17.42 24.63 16.01 30.4 13.76 30.4 15.18 24.63"/><polygon class="cls-1" points="29.28 24.63 31.51 24.63 30.11 30.4 27.86 30.4 29.28 24.63"/><polygon class="cls-1" points="37.28 24.63 39.52 24.63 38.11 30.4 35.86 30.4 37.28 24.63"/><polygon class="cls-1" points="41 24.63 43.23 24.63 41.82 30.4 39.57 30.4 41 24.63"/><polygon class="cls-1" points="36.73 27.07 31.96 27.07 32.76 27.86 36.66 27.86 36.73 27.07"/><path class="cls-1" d="M99.67,25.75c.07-.2-.05-.32-.2-.32l-.1-.14h.36s.11.19.11.19l-.17.27Z"/><path class="cls-1" d="M99.31,27.27c-.05.15-.18.23-.34.22v.14s.34.05.34.05l.13-.19-.13-.22Z"/><polygon class="cls-1" points="69.73 24.64 71.96 24.64 70.56 30.42 68.31 30.42 69.73 24.64"/><polygon class="cls-1" points="77.64 24.63 79.88 24.63 78.47 30.4 76.22 30.4 77.64 24.63"/><polygon class="cls-1" points="77.09 27.07 72.33 27.07 73.12 27.86 77.02 27.86 77.09 27.07"/><path class="cls-1" d="M90.67,30.4h2.25l.52-2.11h5.59s2.27,0,2.74-1.91c.43-1.76-1.87-1.76-1.87-1.76h-7.44l.81.81h6.48l-.49,2.05h-7.86l-.73,2.92Z"/><polygon class="cls-1" points="67.2 25.48 59.71 25.48 59.98 24.67 67.77 24.67 67.2 25.48"/><polygon class="cls-1" points="57.33 29.55 64.82 29.55 64.54 30.36 56.75 30.36 57.33 29.55"/><polygon class="cls-1" points="65.23 27.92 59.02 27.92 59.29 27.11 65.4 27.11 65.23 27.92"/><path class="cls-1" d="M59.21,27.91s-2.24-.02-1.85-1.63c.4-1.61,2.63-1.61,2.63-1.61l-.78,3.24Z"/><path class="cls-1" d="M65.33,27.12s2.24.02,1.85,1.63-2.63,1.61-2.63,1.61l.78-3.24Z"/><polygon class="cls-1" points="47.52 7.31 47.52 0 39.71 0 39.71 6.56 38.73 7.53 31.72 7.53 31.72 14.85 39.53 14.85 39.53 8.24 40.45 7.31 47.52 7.31"/><polygon class="cls-1" points="54.3 7.36 54.3 .04 62.11 .04 62.11 6.6 63.09 7.58 70.1 7.58 70.1 14.89 62.29 14.89 62.29 8.28 61.37 7.36 54.3 7.36"/><rect class="cls-1" x="47.3" y="7.71" width="7.18" height="7.18" rx="2.02" ry="2.02"/></g></svg>